<svg xmlns="http://www.w3.org/2000/svg" xmlns:xlink="http://www.w3.org/1999/xlink" width="500" zoomAndPan="magnify" viewBox="0 0 375 374.999991" height="500" preserveAspectRatio="xMidYMid meet" version="1.0"><defs><g/><clipPath id="93ebe8f5cd"><path d="M 11.542969 150 L 188 150 L 188 306 L 11.542969 306 Z M 11.542969 150 " clip-rule="nonzero"/></clipPath><clipPath id="0d06150305"><path d="M 187 69.167969 L 363.433594 69.167969 L 363.433594 225 L 187 225 Z M 187 69.167969 " clip-rule="nonzero"/></clipPath></defs><g clip-path="url(#93ebe8f5cd)"><path fill="#0652e9" d="M 130.035156 260.488281 L 130.035156 281.90625 L 33.03125 236.839844 L 33.03125 219.460938 L 130.035156 174.394531 L 130.035156 195.820312 L 56.675781 227.949219 L 56.675781 228.351562 Z M 187.644531 150.59375 L 25.425781 150.59375 C 17.765625 150.59375 11.558594 156.800781 11.558594 164.460938 L 11.558594 291.839844 C 11.558594 299.5 17.765625 305.707031 25.425781 305.707031 L 142.613281 305.707031 L 187.644531 150.59375 " fill-opacity="1" fill-rule="nonzero"/></g><g clip-path="url(#0d06150305)"><path fill="#62e1e9" d="M 341.992188 156.101562 L 244.992188 200.5625 L 244.992188 179.136719 L 319.96875 147.007812 L 319.96875 146.605469 L 244.992188 114.46875 L 244.992188 93.050781 L 341.992188 137.507812 Z M 232.679688 69.25 L 187.644531 224.363281 L 349.601562 224.363281 C 357.261719 224.363281 363.46875 218.15625 363.46875 210.492188 L 363.46875 83.113281 C 363.46875 75.457031 357.261719 69.25 349.601562 69.25 L 232.679688 69.25 " fill-opacity="1" fill-rule="nonzero"/></g><g fill="#ffffff" fill-opacity="1"><g transform="translate(34.293763, 118.16576)"><g><path d="M 27.28125 -28.125 L 33.9375 -28.125 L 33.9375 0 L 27.75 0 L 27.75 -16.734375 L 20.109375 0 L 16.546875 0 L 8.953125 -16.78125 L 8.953125 0 L 2.765625 0 L 2.765625 -28.125 L 9.46875 -28.125 L 18.328125 -8.671875 Z M 27.28125 -28.125 "/></g></g></g><g fill="#ffffff" fill-opacity="1"><g transform="translate(72.64433, 118.16576)"><g><path d="M 3 0 L 3 -28.125 L 9.1875 -28.125 L 9.1875 0 Z M 3 0 "/></g></g></g><g fill="#ffffff" fill-opacity="1"><g transform="translate(86.434194, 118.16576)"><g><path d="M 22.96875 -28.125 L 29.109375 -28.125 L 29.109375 0 L 22.734375 0 L 8.953125 -18.65625 L 8.953125 0 L 2.765625 0 L 2.765625 -28.125 L 9.140625 -28.125 L 22.96875 -9.515625 Z M 22.96875 -28.125 "/></g></g></g><g fill="#ffffff" fill-opacity="1"><g transform="translate(120.003857, 118.16576)"><g><path d="M 20.390625 -28.125 L 26.53125 -28.125 L 26.53125 0 L 20.390625 0 L 20.390625 -11.34375 L 8.953125 -11.34375 L 8.953125 0 L 2.765625 0 L 2.765625 -28.125 L 8.953125 -28.125 L 8.953125 -16.828125 L 20.390625 -16.828125 Z M 20.390625 -28.125 "/></g></g></g><g fill="#ffffff" fill-opacity="1"><g transform="translate(150.995587, 118.16576)"><g><path d="M 19.96875 0 L 18.234375 -5.296875 L 7.734375 -5.296875 L 6 0 L -0.609375 0 L 9.515625 -28.125 L 16.453125 -28.125 L 26.578125 0 Z M 9.375 -10.453125 L 16.59375 -10.453125 L 12.984375 -21.609375 Z M 9.375 -10.453125 "/></g></g></g><g fill="#ffffff" fill-opacity="1"><g transform="translate(178.61257, 118.16576)"><g><path d="M 8.953125 -5.484375 L 18.28125 -5.484375 L 18.28125 0 L 2.765625 0 L 2.765625 -28.125 L 8.953125 -28.125 Z M 8.953125 -5.484375 "/></g></g></g><g fill="#ffffff" fill-opacity="1"><g transform="translate(217.126819, 280.400373)"><g><path d="M 17.4375 -11.578125 L 25.3125 0 L 18.375 0 L 11.4375 -10.875 L 8.953125 -10.875 L 8.953125 0 L 2.765625 0 L 2.765625 -28.125 L 14.71875 -28.125 C 16.34375 -28.125 17.78125 -27.738281 19.03125 -26.96875 C 20.28125 -26.207031 21.269531 -25.171875 22 -23.859375 C 22.738281 -22.546875 23.109375 -21.09375 23.109375 -19.5 C 23.109375 -17.59375 22.578125 -15.921875 21.515625 -14.484375 C 20.453125 -13.046875 19.09375 -12.078125 17.4375 -11.578125 Z M 13.78125 -15.984375 C 14.78125 -15.984375 15.597656 -16.296875 16.234375 -16.921875 C 16.878906 -17.546875 17.203125 -18.34375 17.203125 -19.3125 C 17.203125 -20.28125 16.878906 -21.078125 16.234375 -21.703125 C 15.597656 -22.328125 14.78125 -22.640625 13.78125 -22.640625 L 8.953125 -22.640625 L 8.953125 -15.984375 Z M 13.78125 -15.984375 "/></g></g></g><g fill="#ffffff" fill-opacity="1"><g transform="translate(243.853233, 280.400373)"><g><path d="M 3 0 L 3 -28.125 L 9.1875 -28.125 L 9.1875 0 Z M 3 0 "/></g></g></g><g fill="#ffffff" fill-opacity="1"><g transform="translate(257.643099, 280.400373)"><g><path d="M 22.640625 -28.125 L 10.78125 -5.484375 L 22.640625 -5.484375 L 22.640625 0 L 1.078125 0 L 13.03125 -22.640625 L 2.25 -22.640625 L 2.25 -28.125 Z M 22.640625 -28.125 "/></g></g></g><g fill="#ffffff" fill-opacity="1"><g transform="translate(283.291467, 280.400373)"><g><path d="M 19.6875 -28.125 L 26.578125 -28.125 L 16.453125 0 L 9.515625 0 L -0.609375 -28.125 L 6.28125 -28.125 L 12.984375 -8.015625 Z M 19.6875 -28.125 "/></g></g></g><g fill="#ffffff" fill-opacity="1"><g transform="translate(310.90845, 280.400373)"><g><path d="M 3 0 L 3 -28.125 L 9.1875 -28.125 L 9.1875 0 Z M 3 0 "/></g></g></g></svg>